# xmcd CD database file
#
# Track frame offsets:
#	150
#	14391
#	31130
#	50716
#	67134
#	88939
#	111783
#	122672
#	135142
#	148180
#	162770
#	179838
#	200107
#	216965
#	234664
#	236392
#	248307
#	264975
#	282529
#	298811
#	310730
#	325492
#	341990
#
# Disc length: 4752 seconds
#
# Revision: 1
# Processed by: cddbd v1.5.2PL0 Copyright (c) Steve Scherf et al.
# Submitted via: CDex 1.51
#
DISCID=69128e17
DTITLE=Garth Brooks - Vol 1
DYEAR=1900
DGENRE=Country
TTITLE0=Wild Horse
TTITLE1=Double Live
TTITLE2=Friends In Low Places
TTITLE3=How You Ever Gonna Know
TTITLE4=In Lonesome Dove
TTITLE5=Ireland
TTITLE6=It's Midnight Cinderella
TTITLE7=Long Neck Bottle
TTITLE8=She's Every Woman To Me
TTITLE9=Some Where Other Than
TTITLE10=Dance
TTITLE11=River
TTITLE12=Thunder Rolls
TTITLE13=To Make You Feel My Love
TTITLE14=You Move Me
TTITLE15=Callin' Baton Rouge
TTITLE16=If Tomorrow Never Comes
TTITLE17=Standing Outside The Fire
TTITLE18=Two Pina Coladas
TTITLE19=Callin' Baton Rouge 2
TTITLE20=Can I Have This Dance
TTITLE21=You Need Me
TTITLE22=If I Can Dream
EXTD=
EXTT0=
EXTT1=
EXTT2=
EXTT3=
EXTT4=
EXTT5=
EXTT6=
EXTT7=
EXTT8=
EXTT9=
EXTT10=
EXTT11=
EXTT12=
EXTT13=
EXTT14=
EXTT15=
EXTT16=
EXTT17=
EXTT18=
EXTT19=
EXTT20=
EXTT21=
EXTT22=
PLAYORDER=
